<mxfile host="app.diagrams.net" modified="2024-08-07T20:29:31.979Z" agent="Mozilla/5.0 (Windows NT 10.0; Win64; x64) AppleWebKit/537.36 (KHTML, like Gecko) Chrome/127.0.0.0 Safari/537.36" etag="9ulO_bGYKNoGshVr4vMe" version="21.7.2" type="device" pages="4">
  <diagram name="Modelo Objetos Alto Valor" id="K30tNoLPagUi6UGHTw5y">
    <mxGraphModel dx="880" dy="1603" grid="1" gridSize="10" guides="1" tooltips="1" connect="1" arrows="1" fold="1" page="1" pageScale="1" pageWidth="827" pageHeight="1169" math="0" shadow="0">
      <root>
        <mxCell id="0" />
        <mxCell id="1" parent="0" />
        <mxCell id="BIeqrg_stci7-d21XV5S-1" value="&lt;b&gt;&lt;font style=&quot;font-size: 16px;&quot;&gt;OBJETOS DE ALTO VALOR - RELAXGO TRAVEL&lt;/font&gt;&lt;/b&gt;" style="text;html=1;align=center;verticalAlign=middle;resizable=0;points=[];autosize=1;strokeColor=none;fillColor=none;" vertex="1" parent="1">
          <mxGeometry x="204.5" y="-70" width="390" height="30" as="geometry" />
        </mxCell>
        <mxCell id="BIeqrg_stci7-d21XV5S-2" value="Transacción / Promesa" style="ellipse;whiteSpace=wrap;html=1;aspect=fixed;" vertex="1" parent="1">
          <mxGeometry x="290" y="210" width="219" height="219" as="geometry" />
        </mxCell>
        <mxCell id="BIeqrg_stci7-d21XV5S-3" value="" style="endArrow=classic;html=1;rounded=0;" edge="1" parent="1">
          <mxGeometry width="50" height="50" relative="1" as="geometry">
            <mxPoint x="200" y="319" as="sourcePoint" />
            <mxPoint x="290" y="319" as="targetPoint" />
          </mxGeometry>
        </mxCell>
        <mxCell id="BIeqrg_stci7-d21XV5S-4" value="" style="endArrow=classic;html=1;rounded=0;" edge="1" parent="1">
          <mxGeometry width="50" height="50" relative="1" as="geometry">
            <mxPoint x="600" y="320" as="sourcePoint" />
            <mxPoint x="510" y="319" as="targetPoint" />
          </mxGeometry>
        </mxCell>
        <mxCell id="BIeqrg_stci7-d21XV5S-5" value="" style="endArrow=classic;html=1;rounded=0;" edge="1" parent="1">
          <mxGeometry width="50" height="50" relative="1" as="geometry">
            <mxPoint x="399" y="120" as="sourcePoint" />
            <mxPoint x="399" y="210" as="targetPoint" />
          </mxGeometry>
        </mxCell>
        <mxCell id="BIeqrg_stci7-d21XV5S-6" value="" style="endArrow=classic;html=1;rounded=0;" edge="1" parent="1">
          <mxGeometry width="50" height="50" relative="1" as="geometry">
            <mxPoint x="399" y="520" as="sourcePoint" />
            <mxPoint x="399" y="429" as="targetPoint" />
          </mxGeometry>
        </mxCell>
        <mxCell id="BIeqrg_stci7-d21XV5S-7" value="Geografía" style="ellipse;whiteSpace=wrap;html=1;aspect=fixed;" vertex="1" parent="1">
          <mxGeometry x="339.5" width="120" height="120" as="geometry" />
        </mxCell>
        <mxCell id="BIeqrg_stci7-d21XV5S-8" value="Cliente" style="ellipse;whiteSpace=wrap;html=1;aspect=fixed;" vertex="1" parent="1">
          <mxGeometry x="600" y="259.5" width="120" height="120" as="geometry" />
        </mxCell>
        <mxCell id="BIeqrg_stci7-d21XV5S-9" value="Empresa" style="ellipse;whiteSpace=wrap;html=1;aspect=fixed;" vertex="1" parent="1">
          <mxGeometry x="80" y="259.5" width="120" height="120" as="geometry" />
        </mxCell>
        <mxCell id="BIeqrg_stci7-d21XV5S-10" value="Servicio" style="ellipse;whiteSpace=wrap;html=1;aspect=fixed;" vertex="1" parent="1">
          <mxGeometry x="339.5" y="520" width="120" height="120" as="geometry" />
        </mxCell>
      </root>
    </mxGraphModel>
  </diagram>
  <diagram id="AqkmuqFRTF794ZOftPX7" name="Modelo Entidades Alto Valor">
    <mxGraphModel dx="880" dy="434" grid="1" gridSize="10" guides="1" tooltips="1" connect="1" arrows="1" fold="1" page="1" pageScale="1" pageWidth="827" pageHeight="1169" math="0" shadow="0">
      <root>
        <mxCell id="0" />
        <mxCell id="1" parent="0" />
        <mxCell id="zRewK2Abz2QBdXCV2Ru1-1" value="&lt;font style=&quot;font-size: 16px;&quot;&gt;&lt;b&gt;ENTIDADES ALTO VALOR - RELAXGO TRAVEL&lt;/b&gt;&lt;/font&gt;" style="text;html=1;align=center;verticalAlign=middle;resizable=0;points=[];autosize=1;strokeColor=none;fillColor=none;" vertex="1" parent="1">
          <mxGeometry x="200" y="40" width="380" height="30" as="geometry" />
        </mxCell>
        <mxCell id="zRewK2Abz2QBdXCV2Ru1-2" value="&lt;b&gt;Geografía&lt;/b&gt;" style="ellipse;whiteSpace=wrap;html=1;aspect=fixed;" vertex="1" parent="1">
          <mxGeometry x="40" y="130" width="290" height="290" as="geometry" />
        </mxCell>
        <mxCell id="zRewK2Abz2QBdXCV2Ru1-3" value="País" style="ellipse;whiteSpace=wrap;html=1;aspect=fixed;" vertex="1" parent="1">
          <mxGeometry x="145" y="140" width="80" height="80" as="geometry" />
        </mxCell>
        <mxCell id="zRewK2Abz2QBdXCV2Ru1-4" value="Departamento" style="ellipse;whiteSpace=wrap;html=1;aspect=fixed;" vertex="1" parent="1">
          <mxGeometry x="75" y="290" width="80" height="80" as="geometry" />
        </mxCell>
        <mxCell id="zRewK2Abz2QBdXCV2Ru1-5" value="Ciudad" style="ellipse;whiteSpace=wrap;html=1;aspect=fixed;" vertex="1" parent="1">
          <mxGeometry x="210" y="290" width="80" height="80" as="geometry" />
        </mxCell>
        <mxCell id="zRewK2Abz2QBdXCV2Ru1-6" value="&lt;b&gt;Empresa&lt;/b&gt;" style="ellipse;whiteSpace=wrap;html=1;aspect=fixed;" vertex="1" parent="1">
          <mxGeometry x="440" y="130" width="290" height="290" as="geometry" />
        </mxCell>
        <mxCell id="zRewK2Abz2QBdXCV2Ru1-7" value="Tienda" style="ellipse;whiteSpace=wrap;html=1;aspect=fixed;" vertex="1" parent="1">
          <mxGeometry x="545" y="140" width="80" height="80" as="geometry" />
        </mxCell>
        <mxCell id="zRewK2Abz2QBdXCV2Ru1-8" value="Sedes" style="ellipse;whiteSpace=wrap;html=1;aspect=fixed;" vertex="1" parent="1">
          <mxGeometry x="475" y="290" width="80" height="80" as="geometry" />
        </mxCell>
        <mxCell id="zRewK2Abz2QBdXCV2Ru1-9" value="Empleados" style="ellipse;whiteSpace=wrap;html=1;aspect=fixed;" vertex="1" parent="1">
          <mxGeometry x="610" y="290" width="80" height="80" as="geometry" />
        </mxCell>
        <mxCell id="zRewK2Abz2QBdXCV2Ru1-10" value="&lt;b&gt;Producto&lt;/b&gt;" style="ellipse;whiteSpace=wrap;html=1;aspect=fixed;" vertex="1" parent="1">
          <mxGeometry x="40" y="480" width="290" height="290" as="geometry" />
        </mxCell>
        <mxCell id="zRewK2Abz2QBdXCV2Ru1-11" value="Catalogo" style="ellipse;whiteSpace=wrap;html=1;aspect=fixed;" vertex="1" parent="1">
          <mxGeometry x="145" y="490" width="80" height="80" as="geometry" />
        </mxCell>
        <mxCell id="zRewK2Abz2QBdXCV2Ru1-12" value="Tipo Paquete" style="ellipse;whiteSpace=wrap;html=1;aspect=fixed;" vertex="1" parent="1">
          <mxGeometry x="75" y="640" width="80" height="80" as="geometry" />
        </mxCell>
        <mxCell id="zRewK2Abz2QBdXCV2Ru1-13" value="Tipo viaje" style="ellipse;whiteSpace=wrap;html=1;aspect=fixed;" vertex="1" parent="1">
          <mxGeometry x="210" y="640" width="80" height="80" as="geometry" />
        </mxCell>
        <mxCell id="zRewK2Abz2QBdXCV2Ru1-14" value="&lt;b&gt;Transacción&lt;/b&gt;" style="ellipse;whiteSpace=wrap;html=1;aspect=fixed;" vertex="1" parent="1">
          <mxGeometry x="430" y="480" width="290" height="290" as="geometry" />
        </mxCell>
        <mxCell id="zRewK2Abz2QBdXCV2Ru1-15" value="Factura" style="ellipse;whiteSpace=wrap;html=1;aspect=fixed;" vertex="1" parent="1">
          <mxGeometry x="535" y="490" width="80" height="80" as="geometry" />
        </mxCell>
        <mxCell id="zRewK2Abz2QBdXCV2Ru1-16" value="Detalle factura" style="ellipse;whiteSpace=wrap;html=1;aspect=fixed;" vertex="1" parent="1">
          <mxGeometry x="465" y="640" width="80" height="80" as="geometry" />
        </mxCell>
        <mxCell id="zRewK2Abz2QBdXCV2Ru1-17" value="Estado factura" style="ellipse;whiteSpace=wrap;html=1;aspect=fixed;" vertex="1" parent="1">
          <mxGeometry x="600" y="640" width="80" height="80" as="geometry" />
        </mxCell>
      </root>
    </mxGraphModel>
  </diagram>
  <diagram id="i1eo9fA5i2kzZypz52tB" name="Modelo Relacional De Objetos">
    <mxGraphModel dx="880" dy="434" grid="1" gridSize="10" guides="1" tooltips="1" connect="1" arrows="1" fold="1" page="1" pageScale="1" pageWidth="827" pageHeight="1169" math="0" shadow="0">
      <root>
        <mxCell id="0" />
        <mxCell id="1" parent="0" />
        <mxCell id="-37Pm62YewtV6u0UD5y5-4" style="edgeStyle=orthogonalEdgeStyle;rounded=0;orthogonalLoop=1;jettySize=auto;html=1;exitX=0.5;exitY=1;exitDx=0;exitDy=0;entryX=0.5;entryY=0;entryDx=0;entryDy=0;" edge="1" parent="1" source="-37Pm62YewtV6u0UD5y5-1" target="-37Pm62YewtV6u0UD5y5-2">
          <mxGeometry relative="1" as="geometry" />
        </mxCell>
        <mxCell id="-37Pm62YewtV6u0UD5y5-1" value="País" style="whiteSpace=wrap;html=1;aspect=fixed;" vertex="1" parent="1">
          <mxGeometry x="50" y="80" width="80" height="80" as="geometry" />
        </mxCell>
        <mxCell id="-37Pm62YewtV6u0UD5y5-5" style="edgeStyle=orthogonalEdgeStyle;rounded=0;orthogonalLoop=1;jettySize=auto;html=1;exitX=0.5;exitY=1;exitDx=0;exitDy=0;entryX=0.5;entryY=0;entryDx=0;entryDy=0;" edge="1" parent="1" source="-37Pm62YewtV6u0UD5y5-2" target="-37Pm62YewtV6u0UD5y5-3">
          <mxGeometry relative="1" as="geometry" />
        </mxCell>
        <mxCell id="-37Pm62YewtV6u0UD5y5-2" value="Departamento" style="whiteSpace=wrap;html=1;aspect=fixed;" vertex="1" parent="1">
          <mxGeometry x="50" y="240" width="80" height="80" as="geometry" />
        </mxCell>
        <mxCell id="zzyptUxRPjNKdzU0m2bd-11" style="edgeStyle=orthogonalEdgeStyle;rounded=0;orthogonalLoop=1;jettySize=auto;html=1;exitX=0.5;exitY=1;exitDx=0;exitDy=0;entryX=0.1;entryY=0.011;entryDx=0;entryDy=0;entryPerimeter=0;" edge="1" parent="1" source="-37Pm62YewtV6u0UD5y5-3" target="zzyptUxRPjNKdzU0m2bd-2">
          <mxGeometry relative="1" as="geometry">
            <Array as="points">
              <mxPoint x="90" y="560" />
              <mxPoint x="398" y="560" />
            </Array>
          </mxGeometry>
        </mxCell>
        <mxCell id="-37Pm62YewtV6u0UD5y5-3" value="Ciudad" style="whiteSpace=wrap;html=1;aspect=fixed;" vertex="1" parent="1">
          <mxGeometry x="50" y="400" width="80" height="80" as="geometry" />
        </mxCell>
        <mxCell id="-37Pm62YewtV6u0UD5y5-6" style="edgeStyle=orthogonalEdgeStyle;rounded=0;orthogonalLoop=1;jettySize=auto;html=1;exitX=0.5;exitY=1;exitDx=0;exitDy=0;entryX=0.5;entryY=0;entryDx=0;entryDy=0;" edge="1" parent="1" source="-37Pm62YewtV6u0UD5y5-7" target="-37Pm62YewtV6u0UD5y5-9">
          <mxGeometry relative="1" as="geometry" />
        </mxCell>
        <mxCell id="-37Pm62YewtV6u0UD5y5-7" value="Tienda" style="whiteSpace=wrap;html=1;aspect=fixed;" vertex="1" parent="1">
          <mxGeometry x="240" y="80" width="80" height="80" as="geometry" />
        </mxCell>
        <mxCell id="-37Pm62YewtV6u0UD5y5-8" style="edgeStyle=orthogonalEdgeStyle;rounded=0;orthogonalLoop=1;jettySize=auto;html=1;exitX=0.5;exitY=1;exitDx=0;exitDy=0;entryX=0.5;entryY=0;entryDx=0;entryDy=0;" edge="1" parent="1" source="-37Pm62YewtV6u0UD5y5-9" target="-37Pm62YewtV6u0UD5y5-10">
          <mxGeometry relative="1" as="geometry" />
        </mxCell>
        <mxCell id="-37Pm62YewtV6u0UD5y5-9" value="Sedes" style="whiteSpace=wrap;html=1;aspect=fixed;" vertex="1" parent="1">
          <mxGeometry x="240" y="240" width="80" height="80" as="geometry" />
        </mxCell>
        <mxCell id="zzyptUxRPjNKdzU0m2bd-12" style="edgeStyle=orthogonalEdgeStyle;rounded=0;orthogonalLoop=1;jettySize=auto;html=1;exitX=0.75;exitY=1;exitDx=0;exitDy=0;entryX=0.656;entryY=-0.011;entryDx=0;entryDy=0;entryPerimeter=0;" edge="1" parent="1" source="-37Pm62YewtV6u0UD5y5-10" target="zzyptUxRPjNKdzU0m2bd-2">
          <mxGeometry relative="1" as="geometry">
            <Array as="points">
              <mxPoint x="300" y="520" />
              <mxPoint x="498" y="520" />
            </Array>
          </mxGeometry>
        </mxCell>
        <mxCell id="-37Pm62YewtV6u0UD5y5-10" value="Empleados" style="whiteSpace=wrap;html=1;aspect=fixed;" vertex="1" parent="1">
          <mxGeometry x="240" y="400" width="80" height="80" as="geometry" />
        </mxCell>
        <mxCell id="-37Pm62YewtV6u0UD5y5-13" style="edgeStyle=orthogonalEdgeStyle;rounded=0;orthogonalLoop=1;jettySize=auto;html=1;exitX=0.25;exitY=1;exitDx=0;exitDy=0;entryX=0.25;entryY=0;entryDx=0;entryDy=0;" edge="1" parent="1" source="-37Pm62YewtV6u0UD5y5-11" target="-37Pm62YewtV6u0UD5y5-12">
          <mxGeometry relative="1" as="geometry" />
        </mxCell>
        <mxCell id="-37Pm62YewtV6u0UD5y5-11" value="Estado Civil" style="whiteSpace=wrap;html=1;aspect=fixed;" vertex="1" parent="1">
          <mxGeometry x="480" y="80" width="80" height="80" as="geometry" />
        </mxCell>
        <mxCell id="zzyptUxRPjNKdzU0m2bd-15" style="edgeStyle=orthogonalEdgeStyle;rounded=0;orthogonalLoop=1;jettySize=auto;html=1;exitX=0.75;exitY=1;exitDx=0;exitDy=0;entryX=0.889;entryY=0;entryDx=0;entryDy=0;entryPerimeter=0;" edge="1" parent="1" source="-37Pm62YewtV6u0UD5y5-12" target="zzyptUxRPjNKdzU0m2bd-2">
          <mxGeometry relative="1" as="geometry" />
        </mxCell>
        <mxCell id="-37Pm62YewtV6u0UD5y5-12" value="Comprador" style="whiteSpace=wrap;html=1;aspect=fixed;" vertex="1" parent="1">
          <mxGeometry x="480" y="400" width="80" height="80" as="geometry" />
        </mxCell>
        <mxCell id="-37Pm62YewtV6u0UD5y5-15" style="edgeStyle=orthogonalEdgeStyle;rounded=0;orthogonalLoop=1;jettySize=auto;html=1;exitX=0.5;exitY=1;exitDx=0;exitDy=0;entryX=0.75;entryY=0;entryDx=0;entryDy=0;" edge="1" parent="1" source="-37Pm62YewtV6u0UD5y5-14" target="-37Pm62YewtV6u0UD5y5-12">
          <mxGeometry relative="1" as="geometry" />
        </mxCell>
        <mxCell id="-37Pm62YewtV6u0UD5y5-14" value="Tipo Documento" style="whiteSpace=wrap;html=1;aspect=fixed;" vertex="1" parent="1">
          <mxGeometry x="550" y="240" width="80" height="80" as="geometry" />
        </mxCell>
        <mxCell id="-37Pm62YewtV6u0UD5y5-16" style="edgeStyle=orthogonalEdgeStyle;rounded=0;orthogonalLoop=1;jettySize=auto;html=1;exitX=0.25;exitY=1;exitDx=0;exitDy=0;entryX=0.25;entryY=0;entryDx=0;entryDy=0;" edge="1" parent="1" source="-37Pm62YewtV6u0UD5y5-17" target="-37Pm62YewtV6u0UD5y5-18">
          <mxGeometry relative="1" as="geometry" />
        </mxCell>
        <mxCell id="-37Pm62YewtV6u0UD5y5-17" value="Tipo Servicio" style="whiteSpace=wrap;html=1;aspect=fixed;" vertex="1" parent="1">
          <mxGeometry x="710" y="80" width="80" height="80" as="geometry" />
        </mxCell>
        <mxCell id="zzyptUxRPjNKdzU0m2bd-7" style="edgeStyle=orthogonalEdgeStyle;rounded=0;orthogonalLoop=1;jettySize=auto;html=1;exitX=0.5;exitY=1;exitDx=0;exitDy=0;entryX=0.5;entryY=0;entryDx=0;entryDy=0;" edge="1" parent="1" source="-37Pm62YewtV6u0UD5y5-18" target="zzyptUxRPjNKdzU0m2bd-3">
          <mxGeometry relative="1" as="geometry" />
        </mxCell>
        <mxCell id="-37Pm62YewtV6u0UD5y5-18" value="Servicio" style="whiteSpace=wrap;html=1;aspect=fixed;" vertex="1" parent="1">
          <mxGeometry x="710" y="400" width="80" height="80" as="geometry" />
        </mxCell>
        <mxCell id="-37Pm62YewtV6u0UD5y5-19" style="edgeStyle=orthogonalEdgeStyle;rounded=0;orthogonalLoop=1;jettySize=auto;html=1;exitX=0.5;exitY=1;exitDx=0;exitDy=0;entryX=0.75;entryY=0;entryDx=0;entryDy=0;" edge="1" parent="1" source="-37Pm62YewtV6u0UD5y5-20" target="-37Pm62YewtV6u0UD5y5-18">
          <mxGeometry relative="1" as="geometry" />
        </mxCell>
        <mxCell id="-37Pm62YewtV6u0UD5y5-20" value="Tipo Paquete" style="whiteSpace=wrap;html=1;aspect=fixed;" vertex="1" parent="1">
          <mxGeometry x="780" y="240" width="80" height="80" as="geometry" />
        </mxCell>
        <mxCell id="zzyptUxRPjNKdzU0m2bd-5" style="edgeStyle=orthogonalEdgeStyle;rounded=0;orthogonalLoop=1;jettySize=auto;html=1;exitX=1;exitY=0.5;exitDx=0;exitDy=0;" edge="1" parent="1" source="zzyptUxRPjNKdzU0m2bd-1" target="zzyptUxRPjNKdzU0m2bd-2">
          <mxGeometry relative="1" as="geometry" />
        </mxCell>
        <mxCell id="zzyptUxRPjNKdzU0m2bd-1" value="ESTADO FACTURA" style="whiteSpace=wrap;html=1;aspect=fixed;" vertex="1" parent="1">
          <mxGeometry x="80" y="600" width="180" height="180" as="geometry" />
        </mxCell>
        <mxCell id="zzyptUxRPjNKdzU0m2bd-6" style="edgeStyle=orthogonalEdgeStyle;rounded=0;orthogonalLoop=1;jettySize=auto;html=1;exitX=1;exitY=0.5;exitDx=0;exitDy=0;entryX=0;entryY=0.5;entryDx=0;entryDy=0;" edge="1" parent="1" source="zzyptUxRPjNKdzU0m2bd-2" target="zzyptUxRPjNKdzU0m2bd-3">
          <mxGeometry relative="1" as="geometry" />
        </mxCell>
        <mxCell id="zzyptUxRPjNKdzU0m2bd-2" value="FACTURA" style="whiteSpace=wrap;html=1;aspect=fixed;" vertex="1" parent="1">
          <mxGeometry x="380" y="600" width="180" height="180" as="geometry" />
        </mxCell>
        <mxCell id="zzyptUxRPjNKdzU0m2bd-3" value="DETALLE FACTURA" style="whiteSpace=wrap;html=1;aspect=fixed;" vertex="1" parent="1">
          <mxGeometry x="660" y="600" width="180" height="180" as="geometry" />
        </mxCell>
      </root>
    </mxGraphModel>
  </diagram>
  <diagram id="iTTL3jfCNYxSCa1hqZ1z" name="Modelo De Casos">
    <mxGraphModel dx="880" dy="434" grid="1" gridSize="10" guides="1" tooltips="1" connect="1" arrows="1" fold="1" page="1" pageScale="1" pageWidth="827" pageHeight="1169" math="0" shadow="0">
      <root>
        <mxCell id="0" />
        <mxCell id="1" parent="0" />
        <mxCell id="V-_Pp2yWIFiEVuX4f3xX-1" value="Usuario" style="shape=umlActor;verticalLabelPosition=bottom;verticalAlign=top;html=1;outlineConnect=0;" vertex="1" parent="1">
          <mxGeometry x="80" y="90" width="30" height="60" as="geometry" />
        </mxCell>
        <mxCell id="V-_Pp2yWIFiEVuX4f3xX-2" value="Comprador" style="shape=umlActor;verticalLabelPosition=bottom;verticalAlign=top;html=1;outlineConnect=0;" vertex="1" parent="1">
          <mxGeometry x="80" y="280" width="30" height="60" as="geometry" />
        </mxCell>
        <mxCell id="V-_Pp2yWIFiEVuX4f3xX-3" value="Vendedor" style="shape=umlActor;verticalLabelPosition=bottom;verticalAlign=top;html=1;outlineConnect=0;" vertex="1" parent="1">
          <mxGeometry x="80" y="480" width="30" height="60" as="geometry" />
        </mxCell>
        <mxCell id="V-_Pp2yWIFiEVuX4f3xX-4" value="Ingresar" style="ellipse;whiteSpace=wrap;html=1;" vertex="1" parent="1">
          <mxGeometry x="294" y="40" width="120" height="80" as="geometry" />
        </mxCell>
        <mxCell id="V-_Pp2yWIFiEVuX4f3xX-16" style="edgeStyle=orthogonalEdgeStyle;rounded=0;orthogonalLoop=1;jettySize=auto;html=1;exitX=1;exitY=0.5;exitDx=0;exitDy=0;" edge="1" parent="1" source="V-_Pp2yWIFiEVuX4f3xX-5" target="V-_Pp2yWIFiEVuX4f3xX-8">
          <mxGeometry relative="1" as="geometry" />
        </mxCell>
        <mxCell id="V-_Pp2yWIFiEVuX4f3xX-5" value="Modificar" style="ellipse;whiteSpace=wrap;html=1;" vertex="1" parent="1">
          <mxGeometry x="294" y="190" width="120" height="80" as="geometry" />
        </mxCell>
        <mxCell id="V-_Pp2yWIFiEVuX4f3xX-17" style="edgeStyle=orthogonalEdgeStyle;rounded=0;orthogonalLoop=1;jettySize=auto;html=1;exitX=1;exitY=0.5;exitDx=0;exitDy=0;entryX=0;entryY=0.75;entryDx=0;entryDy=0;entryPerimeter=0;" edge="1" parent="1" source="V-_Pp2yWIFiEVuX4f3xX-6" target="V-_Pp2yWIFiEVuX4f3xX-8">
          <mxGeometry relative="1" as="geometry" />
        </mxCell>
        <mxCell id="V-_Pp2yWIFiEVuX4f3xX-6" value="Retirar" style="ellipse;whiteSpace=wrap;html=1;" vertex="1" parent="1">
          <mxGeometry x="294" y="350" width="120" height="80" as="geometry" />
        </mxCell>
        <mxCell id="V-_Pp2yWIFiEVuX4f3xX-7" value="Consultar" style="ellipse;whiteSpace=wrap;html=1;" vertex="1" parent="1">
          <mxGeometry x="294" y="500" width="120" height="80" as="geometry" />
        </mxCell>
        <mxCell id="V-_Pp2yWIFiEVuX4f3xX-8" value="País" style="ellipse;whiteSpace=wrap;html=1;" vertex="1" parent="1">
          <mxGeometry x="710" y="260" width="117" height="80" as="geometry" />
        </mxCell>
        <mxCell id="V-_Pp2yWIFiEVuX4f3xX-11" value="" style="endArrow=none;html=1;rounded=0;exitX=1;exitY=0.5;exitDx=0;exitDy=0;" edge="1" parent="1" source="V-_Pp2yWIFiEVuX4f3xX-4">
          <mxGeometry width="50" height="50" relative="1" as="geometry">
            <mxPoint x="420" y="79.5" as="sourcePoint" />
            <mxPoint x="760" y="80" as="targetPoint" />
          </mxGeometry>
        </mxCell>
        <mxCell id="V-_Pp2yWIFiEVuX4f3xX-12" value="" style="endArrow=classic;html=1;rounded=0;entryX=0.45;entryY=-0.05;entryDx=0;entryDy=0;entryPerimeter=0;" edge="1" parent="1" target="V-_Pp2yWIFiEVuX4f3xX-8">
          <mxGeometry width="50" height="50" relative="1" as="geometry">
            <mxPoint x="760" y="80" as="sourcePoint" />
            <mxPoint x="760" y="140" as="targetPoint" />
          </mxGeometry>
        </mxCell>
        <mxCell id="V-_Pp2yWIFiEVuX4f3xX-13" value="" style="endArrow=none;html=1;rounded=0;exitX=1;exitY=0.5;exitDx=0;exitDy=0;" edge="1" parent="1">
          <mxGeometry width="50" height="50" relative="1" as="geometry">
            <mxPoint x="414" y="539.5" as="sourcePoint" />
            <mxPoint x="760" y="539.5" as="targetPoint" />
          </mxGeometry>
        </mxCell>
        <mxCell id="V-_Pp2yWIFiEVuX4f3xX-15" value="" style="endArrow=classic;html=1;rounded=0;" edge="1" parent="1">
          <mxGeometry width="50" height="50" relative="1" as="geometry">
            <mxPoint x="760" y="540" as="sourcePoint" />
            <mxPoint x="760" y="350" as="targetPoint" />
          </mxGeometry>
        </mxCell>
        <mxCell id="V-_Pp2yWIFiEVuX4f3xX-19" value="" style="endArrow=none;html=1;rounded=0;" edge="1" parent="1">
          <mxGeometry width="50" height="50" relative="1" as="geometry">
            <mxPoint x="120" y="120" as="sourcePoint" />
            <mxPoint x="240" y="120" as="targetPoint" />
          </mxGeometry>
        </mxCell>
        <mxCell id="V-_Pp2yWIFiEVuX4f3xX-20" value="" style="endArrow=none;html=1;rounded=0;" edge="1" parent="1">
          <mxGeometry width="50" height="50" relative="1" as="geometry">
            <mxPoint x="240" y="400" as="sourcePoint" />
            <mxPoint x="240" y="120" as="targetPoint" />
          </mxGeometry>
        </mxCell>
        <mxCell id="V-_Pp2yWIFiEVuX4f3xX-21" value="" style="endArrow=classic;html=1;rounded=0;" edge="1" parent="1">
          <mxGeometry width="50" height="50" relative="1" as="geometry">
            <mxPoint x="240" y="400" as="sourcePoint" />
            <mxPoint x="294" y="400" as="targetPoint" />
          </mxGeometry>
        </mxCell>
        <mxCell id="V-_Pp2yWIFiEVuX4f3xX-22" value="" style="endArrow=none;html=1;rounded=0;" edge="1" parent="1">
          <mxGeometry width="50" height="50" relative="1" as="geometry">
            <mxPoint x="200" y="120" as="sourcePoint" />
            <mxPoint x="200" y="80" as="targetPoint" />
          </mxGeometry>
        </mxCell>
        <mxCell id="V-_Pp2yWIFiEVuX4f3xX-24" value="" style="endArrow=classic;html=1;rounded=0;" edge="1" parent="1">
          <mxGeometry width="50" height="50" relative="1" as="geometry">
            <mxPoint x="200" y="80" as="sourcePoint" />
            <mxPoint x="290" y="80" as="targetPoint" />
          </mxGeometry>
        </mxCell>
        <mxCell id="V-_Pp2yWIFiEVuX4f3xX-26" value="" style="endArrow=classic;html=1;rounded=0;" edge="1" parent="1">
          <mxGeometry width="50" height="50" relative="1" as="geometry">
            <mxPoint x="240" y="230" as="sourcePoint" />
            <mxPoint x="294" y="230" as="targetPoint" />
          </mxGeometry>
        </mxCell>
        <mxCell id="V-_Pp2yWIFiEVuX4f3xX-27" value="" style="endArrow=classic;html=1;rounded=0;" edge="1" parent="1">
          <mxGeometry width="50" height="50" relative="1" as="geometry">
            <mxPoint x="134" y="539.5" as="sourcePoint" />
            <mxPoint x="294" y="539.5" as="targetPoint" />
          </mxGeometry>
        </mxCell>
        <mxCell id="V-_Pp2yWIFiEVuX4f3xX-28" value="" style="endArrow=none;html=1;rounded=0;" edge="1" parent="1">
          <mxGeometry width="50" height="50" relative="1" as="geometry">
            <mxPoint x="120" y="320" as="sourcePoint" />
            <mxPoint x="170" y="320" as="targetPoint" />
          </mxGeometry>
        </mxCell>
        <mxCell id="V-_Pp2yWIFiEVuX4f3xX-29" value="" style="endArrow=none;html=1;rounded=0;" edge="1" parent="1">
          <mxGeometry width="50" height="50" relative="1" as="geometry">
            <mxPoint x="170" y="540" as="sourcePoint" />
            <mxPoint x="170" y="320" as="targetPoint" />
          </mxGeometry>
        </mxCell>
        <mxCell id="V-_Pp2yWIFiEVuX4f3xX-30" value="" style="endArrow=none;html=1;rounded=0;" edge="1" parent="1">
          <mxGeometry width="50" height="50" relative="1" as="geometry">
            <mxPoint x="220" y="540" as="sourcePoint" />
            <mxPoint x="220" y="120" as="targetPoint" />
          </mxGeometry>
        </mxCell>
      </root>
    </mxGraphModel>
  </diagram>
</mxfile>
